<svg xmlns="http://www.w3.org/2000/svg" version="1.1" xmlns:xlink="http://www.w3.org/1999/xlink" xmlns:svgjs="http://svgjs.dev/svgjs" width="2000" height="2000" viewBox="0 0 2000 2000"><g transform="matrix(1,0,0,1,-0.28443113772425477,-0.28443113772459583)"><svg viewBox="0 0 334 334" data-background-color="#ffffff" preserveAspectRatio="xMidYMid meet" height="2000" width="2000" xmlns="http://www.w3.org/2000/svg" xmlns:xlink="http://www.w3.org/1999/xlink"><g id="tight-bounds" transform="matrix(1,0,0,1,0.04749999999998522,0.04750000000001364)"><svg viewBox="0 0 333.90454557049503 333.90454557049503" height="333.90454557049503" width="333.90454557049503"><g><svg></svg></g><g><svg viewBox="0 0 333.90454557049503 333.90454557049503" height="333.90454557049503" width="333.90454557049503"><g><path d="M0 166.952c0-92.205 74.747-166.952 166.952-166.952 92.205 0 166.952 74.747 166.953 166.952 0 92.205-74.747 166.952-166.953 166.953-92.205 0-166.952-74.747-166.952-166.953zM166.952 316.63c82.665 0 149.677-67.013 149.678-149.678 0-82.665-67.013-149.677-149.678-149.677-82.665 0-149.677 67.013-149.677 149.677 0 82.665 67.013 149.677 149.677 149.678z" data-fill-palette-color="tertiary" fill="#111111" stroke="transparent"></path><ellipse rx="160.27418187383762" ry="160.27418187383762" cx="166.95227278524752" cy="166.95227278524752" fill="#111111" stroke="transparent" stroke-width="0" fill-opacity="1" data-fill-palette-color="tertiary"></ellipse></g><g transform="matrix(1,0,0,1,104.48756368943542,71.17305217166897)"><svg viewBox="0 0 124.9294181916242 191.5584412271571" height="191.5584412271571" width="124.9294181916242"><g><svg viewBox="0 0 124.9294181916242 191.5584412271571" height="191.5584412271571" width="124.9294181916242"><g><svg viewBox="0 0 124.9294181916242 191.5584412271571" height="191.5584412271571" width="124.9294181916242"><g id="textblocktransform"><svg viewBox="0 0 124.9294181916242 191.5584412271571" height="191.5584412271571" width="124.9294181916242" id="textblock"><g><svg viewBox="0 0 124.9294181916242 191.5584412271571" height="191.5584412271571" width="124.9294181916242"><g><svg viewBox="0 0 124.9294181916242 191.5584412271571" height="191.5584412271571" width="124.9294181916242"><g transform="matrix(1,0,0,1,0,0)"><svg width="124.9294181916242" viewBox="2.2699999809265137 -40.43000030517578 26.369998931884766 40.43000030517578" height="191.5584412271571" data-palette-color="#ffffff"><path d="M2.27 0L2.27-40.43 4.03-40.43 4.03 0 2.27 0ZM12.82 0L12.82-40.43 14.58-40.43 14.58-8.79 28.64-8.79 28.64-7.03 14.58-7.03 14.58-5.27 28.64-5.27 28.64-3.52 14.58-3.52 14.58-1.76 28.64-1.76 28.64 0 12.82 0ZM9.3 0L9.3-40.43 11.06-40.43 11.06 0 9.3 0ZM5.79 0L5.79-40.43 7.54-40.43 7.54 0 5.79 0Z" opacity="1" transform="matrix(1,0,0,1,0,0)" fill="#ffffff" class="undefined-text-0" data-fill-palette-color="quaternary" id="text-0"></path></svg></g></svg></g></svg></g></svg></g></svg></g></svg></g></svg></g></svg></g><defs></defs></svg><rect width="333.90454557049503" height="333.90454557049503" fill="none" stroke="none" visibility="hidden"></rect></g></svg></g></svg>